<svg width="128" height="128" viewBox="0 0 128 128" fill="none" xmlns="http://www.w3.org/2000/svg">
  <!-- Background -->
  <rect width="128" height="128" rx="20" fill="#3B82F6"/>
  
  <!-- QR Code Pattern -->
  <g fill="white">
    <!-- Top-left corner square -->
    <rect x="16" y="16" width="24" height="24" rx="2" fill="white"/>
    <rect x="20" y="20" width="16" height="16" rx="1" fill="#3B82F6"/>
    <rect x="24" y="24" width="8" height="8" fill="white"/>
    
    <!-- Top-right corner square -->
    <rect x="88" y="16" width="24" height="24" rx="2" fill="white"/>
    <rect x="92" y="20" width="16" height="16" rx="1" fill="#3B82F6"/>
    <rect x="96" y="24" width="8" height="8" fill="white"/>
    
    <!-- Bottom-left corner square -->
    <rect x="16" y="88" width="24" height="24" rx="2" fill="white"/>
    <rect x="20" y="92" width="16" height="16" rx="1" fill="#3B82F6"/>
    <rect x="24" y="96" width="8" height="8" fill="white"/>
    
    <!-- Data pattern dots -->
    <rect x="48" y="16" width="4" height="4" fill="white"/>
    <rect x="56" y="16" width="4" height="4" fill="white"/>
    <rect x="64" y="16" width="4" height="4" fill="white"/>
    <rect x="72" y="16" width="4" height="4" fill="white"/>
    
    <rect x="16" y="48" width="4" height="4" fill="white"/>
    <rect x="16" y="56" width="4" height="4" fill="white"/>
    <rect x="16" y="64" width="4" height="4" fill="white"/>
    <rect x="16" y="72" width="4" height="4" fill="white"/>
    
    <rect x="48" y="48" width="4" height="4" fill="white"/>
    <rect x="56" y="48" width="4" height="4" fill="white"/>
    <rect x="64" y="48" width="4" height="4" fill="white"/>
    <rect x="72" y="48" width="4" height="4" fill="white"/>
    <rect x="80" y="48" width="4" height="4" fill="white"/>
    <rect x="88" y="48" width="4" height="4" fill="white"/>
    <rect x="96" y="48" width="4" height="4" fill="white"/>
    <rect x="104" y="48" width="4" height="4" fill="white"/>
    
    <rect x="48" y="56" width="4" height="4" fill="white"/>
    <rect x="64" y="56" width="4" height="4" fill="white"/>
    <rect x="80" y="56" width="4" height="4" fill="white"/>
    <rect x="96" y="56" width="4" height="4" fill="white"/>
    
    <rect x="48" y="64" width="4" height="4" fill="white"/>
    <rect x="56" y="64" width="4" height="4" fill="white"/>
    <rect x="72" y="64" width="4" height="4" fill="white"/>
    <rect x="88" y="64" width="4" height="4" fill="white"/>
    <rect x="104" y="64" width="4" height="4" fill="white"/>
    
    <rect x="48" y="72" width="4" height="4" fill="white"/>
    <rect x="64" y="72" width="4" height="4" fill="white"/>
    <rect x="72" y="72" width="4" height="4" fill="white"/>
    <rect x="80" y="72" width="4" height="4" fill="white"/>
    <rect x="96" y="72" width="4" height="4" fill="white"/>
    
    <rect x="48" y="80" width="4" height="4" fill="white"/>
    <rect x="56" y="80" width="4" height="4" fill="white"/>
    <rect x="64" y="80" width="4" height="4" fill="white"/>
    <rect x="72" y="80" width="4" height="4" fill="white"/>
    <rect x="80" y="80" width="4" height="4" fill="white"/>
    <rect x="88" y="80" width="4" height="4" fill="white"/>
    <rect x="96" y="80" width="4" height="4" fill="white"/>
    <rect x="104" y="80" width="4" height="4" fill="white"/>
    
    <rect x="48" y="88" width="4" height="4" fill="white"/>
    <rect x="56" y="88" width="4" height="4" fill="white"/>
    <rect x="64" y="88" width="4" height="4" fill="white"/>
    <rect x="72" y="88" width="4" height="4" fill="white"/>
    
    <rect x="48" y="96" width="4" height="4" fill="white"/>
    <rect x="64" y="96" width="4" height="4" fill="white"/>
    <rect x="72" y="96" width="4" height="4" fill="white"/>
    
    <rect x="48" y="104" width="4" height="4" fill="white"/>
    <rect x="56" y="104" width="4" height="4" fill="white"/>
    <rect x="64" y="104" width="4" height="4" fill="white"/>
    <rect x="72" y="104" width="4" height="4" fill="white"/>
  </g>
</svg>